<?xml version="1.0" encoding="UTF-8" standalone="no"?>
<!--
/*******************************************************************************
* Copyright (c) 2010-2017 ITER Organization.
* All rights reserved. This program and the accompanying materials
* are made available under the terms of the Eclipse Public License v1.0
* which accompanies this distribution, and is available at
* http://www.eclipse.org/legal/epl-v10.html
******************************************************************************/
-->

<svg
   xmlns:dc="http://purl.org/dc/elements/1.1/"
   xmlns:cc="http://creativecommons.org/ns#"
   xmlns:rdf="http://www.w3.org/1999/02/22-rdf-syntax-ns#"
   xmlns:svg="http://www.w3.org/2000/svg"
   xmlns="http://www.w3.org/2000/svg"
   xmlns:sodipodi="http://sodipodi.sourceforge.net/DTD/sodipodi-0.dtd"
   xmlns:inkscape="http://www.inkscape.org/namespaces/inkscape"
   width="92pt"
   height="75pt"
   viewBox="0 0 92 75"
   version="1.1"
   id="svg17"
   sodipodi:docname="HX_General_BLACK.svg"
   inkscape:version="0.92.2 (5c3e80d, 2017-08-06)">
  <metadata
     id="metadata23">
    <rdf:RDF>
      <cc:Work
         rdf:about="">
        <dc:format>image/svg+xml</dc:format>
        <dc:type
           rdf:resource="http://purl.org/dc/dcmitype/StillImage" />
        <dc:title></dc:title>
      </cc:Work>
    </rdf:RDF>
  </metadata>
  <defs
     id="defs21" />
  <sodipodi:namedview
     pagecolor="#ffffff"
     bordercolor="#666666"
     borderopacity="1"
     objecttolerance="10"
     gridtolerance="10"
     guidetolerance="10"
     inkscape:pageopacity="0"
     inkscape:pageshadow="2"
     inkscape:window-width="832"
     inkscape:window-height="480"
     id="namedview19"
     showgrid="false"
     inkscape:zoom="2.36"
     inkscape:cx="67.082912"
     inkscape:cy="50"
     inkscape:window-x="0"
     inkscape:window-y="28"
     inkscape:window-maximized="0"
     inkscape:current-layer="svg17" />
  <g
     id="surface0">
    <path
       style=" stroke:none;fill-rule:evenodd;fill:rgb(100%,100%,100%);fill-opacity:1;"
       d="M 0.765625 0.773438 L 0.78125 0.773438 L 0.78125 0.792969 L 0.765625 0.792969 Z M 0.765625 0.773438 "
       id="path2" />
    <path
       style=" stroke:none;fill-rule:evenodd;fill:rgb(100%,100%,100%);fill-opacity:1;"
       d="M 91.078125 73.953125 L 91.09375 73.953125 L 91.09375 73.972656 L 91.078125 73.972656 Z M 91.078125 73.953125 "
       id="path4" />
    <path
       style=" stroke:none;fill-rule:evenodd;fill:rgb(100%,100%,100%);fill-opacity:1;"
       d="M 64 37.371094 C 64 27.261719 55.910156 19.066406 45.929688 19.066406 C 35.953125 19.066406 27.863281 27.261719 27.863281 37.371094 C 27.863281 47.476562 35.953125 55.671875 45.929688 55.671875 C 55.910156 55.671875 64 47.476562 64 37.371094 Z M 64 37.371094 "
       id="path6" />
    <path
       style="fill:none;stroke-width:0.72;stroke-linecap:round;stroke-linejoin:round;stroke:rgb(0%,0%,0%);stroke-opacity:1;stroke-miterlimit:3;"
       d="M 34.021087 52.461208 C 34.021087 43.065365 26.404893 35.448488 17.008768 35.448488 C 7.616321 35.448488 0.000126742 43.065365 0.000126742 52.461208 C 0.000126742 61.85342 7.616321 69.470297 17.008768 69.470297 C 26.404893 69.470297 34.021087 61.85342 34.021087 52.461208 "
       transform="matrix(1.06219,0,0,1.075941,27.863147,-19.074087)"
       id="path8" />
    <path
       style="fill:none;stroke-width:0.72;stroke-linecap:round;stroke-linejoin:round;stroke:rgb(0%,0%,0%);stroke-opacity:1;stroke-miterlimit:3;"
       d="M 34.021087 60.971198 L 8.498931 60.971198 L 17.008768 52.461208 "
       transform="matrix(1.06219,0,0,1.075941,27.863147,-19.074087)"
       id="path10" />
    <path
       style="fill:none;stroke-width:0.72;stroke-linecap:round;stroke-linejoin:round;stroke:rgb(0%,0%,0%);stroke-opacity:1;stroke-miterlimit:3;"
       d="M 8.498931 43.962109 L 17.008768 52.461208 "
       transform="matrix(1.06219,0,0,1.075941,27.863147,-19.074087)"
       id="path12" />
    <path
       style="fill:none;stroke-width:0.72;stroke-linecap:round;stroke-linejoin:round;stroke:rgb(0%,0%,0%);stroke-opacity:1;stroke-miterlimit:3;"
       d="M 34.021087 43.962109 L 8.498931 43.962109 "
       transform="matrix(1.06219,0,0,1.075941,27.863147,-19.074087)"
       id="path14" />
  </g>
</svg>
