<?xml version="1.0" encoding="UTF-8" standalone="no"?>
<!--
/*******************************************************************************
* Copyright (c) 2010-2017 ITER Organization.
* All rights reserved. This program and the accompanying materials
* are made available under the terms of the Eclipse Public License v1.0
* which accompanies this distribution, and is available at
* http://www.eclipse.org/legal/epl-v10.html
******************************************************************************/
-->

<svg
   xmlns:dc="http://purl.org/dc/elements/1.1/"
   xmlns:cc="http://creativecommons.org/ns#"
   xmlns:rdf="http://www.w3.org/1999/02/22-rdf-syntax-ns#"
   xmlns:svg="http://www.w3.org/2000/svg"
   xmlns="http://www.w3.org/2000/svg"
   xmlns:sodipodi="http://sodipodi.sourceforge.net/DTD/sodipodi-0.dtd"
   xmlns:inkscape="http://www.inkscape.org/namespaces/inkscape"
   width="29pt"
   height="29pt"
   viewBox="0 0 29 29"
   version="1.1"
   id="svg21"
   sodipodi:docname="PV_Vacuum_Pump_GREEN.svg"
   inkscape:version="0.92.2 (5c3e80d, 2017-08-06)">
  <metadata
     id="metadata27">
    <rdf:RDF>
      <cc:Work
         rdf:about="">
        <dc:format>image/svg+xml</dc:format>
        <dc:type
           rdf:resource="http://purl.org/dc/dcmitype/StillImage" />
        <dc:title></dc:title>
      </cc:Work>
    </rdf:RDF>
  </metadata>
  <defs
     id="defs25" />
  <sodipodi:namedview
     pagecolor="#ffffff"
     bordercolor="#666666"
     borderopacity="1"
     objecttolerance="10"
     gridtolerance="10"
     guidetolerance="10"
     inkscape:pageopacity="0"
     inkscape:pageshadow="2"
     inkscape:window-width="1078"
     inkscape:window-height="697"
     id="namedview23"
     showgrid="false"
     inkscape:zoom="6.1034483"
     inkscape:cx="9.7237352"
     inkscape:cy="19.333333"
     inkscape:window-x="423"
     inkscape:window-y="28"
     inkscape:window-maximized="0"
     inkscape:current-layer="svg21" />
  <g
     id="surface0">
    <path
       style="fill:none;stroke-width:1.345125;stroke-linecap:round;stroke-linejoin:round;stroke:rgb(0%,0%,0%);stroke-opacity:1;stroke-miterlimit:4;"
       d="M 0.665302 25.003125 L 9.192026 25.003125 "
       transform="matrix(0.575397,0,0,0.575397,0,0)"
       id="path2" />
    <path
       style="fill:none;stroke-width:1.345125;stroke-linecap:round;stroke-linejoin:round;stroke:rgb(0%,0%,0%);stroke-opacity:1;stroke-miterlimit:4;"
       d="M 41.608513 25.003125 L 50.108082 25.003125 "
       transform="matrix(0.575397,0,0,0.575397,0,0)"
       id="path4" />
    <path
       style="fill-rule:nonzero;fill:#00ff00;fill-opacity:1;stroke-width:1.3504;stroke-linecap:round;stroke-linejoin:round;stroke:rgb(0%, 0%, 0%);stroke-opacity:1;stroke-miterlimit:4"
       d="M 124.28069 48.283327 C 124.362475 41.686006 120.845721 35.552133 115.073065 32.233026 C 109.307225 28.91392 102.185117 28.91392 96.419277 32.233026 C 90.653436 35.552133 87.129867 41.686006 87.211652 48.283327 C 87.129867 54.887463 90.653436 61.021336 96.419277 64.340442 C 102.185117 67.659549 109.307225 67.659549 115.073065 64.340442 C 120.845721 61.021336 124.362475 54.887463 124.28069 48.283327 "
       transform="matrix(0.573149,0,0,0.573149,-45.993112,-13.060275)"
       id="path6" />
    <path
       style="fill:none;stroke-width:1.3504;stroke-linecap:round;stroke-linejoin:round;stroke:rgb(0%,0%,0%);stroke-opacity:1;stroke-miterlimit:4;"
       d="M 96.180737 32.267104 L 121.48637 38.993917 "
       transform="matrix(0.573149,0,0,0.573149,-45.993112,-13.060275)"
       id="path8" />
    <path
       style="fill:none;stroke-width:1.3504;stroke-linecap:round;stroke-linejoin:round;stroke:rgb(0%,0%,0%);stroke-opacity:1;stroke-miterlimit:4;"
       d="M 96.180737 64.095087 L 121.48637 57.368274 "
       transform="matrix(0.573149,0,0,0.573149,-45.993112,-13.060275)"
       id="path10" />
    <path
       style=" stroke:none;fill-rule:evenodd;fill:rgb(100%,100%,100%);fill-opacity:1;"
       d="M 0.777344 0.777344 L 0.792969 0.777344 L 0.792969 0.792969 L 0.777344 0.792969 Z M 0.777344 0.777344 "
       id="path12" />
    <path
       style=" stroke:none;fill-rule:evenodd;fill:rgb(100%,100%,100%);fill-opacity:1;"
       d="M 28.175781 28.175781 L 28.191406 28.175781 L 28.191406 28.191406 L 28.175781 28.191406 Z M 28.175781 28.175781 "
       id="path14" />
    <path
       style=" stroke:none;fill-rule:evenodd;fill:rgb(100%,100%,100%);fill-opacity:1;"
       d="M 28.472656 28.710938 L 28.492188 28.710938 L 28.492188 28.730469 L 28.472656 28.730469 Z M 28.472656 28.710938 "
       id="path16" />
    <path
       style=" stroke:none;fill-rule:evenodd;fill:rgb(100%,100%,100%);fill-opacity:1;"
       d="M 28.476562 28.703125 L 28.507812 28.703125 L 28.507812 28.730469 L 28.476562 28.730469 Z M 28.476562 28.703125 "
       id="path18" />
  </g>
</svg>
